<?xml version="1.0" standalone="no"?>
<!DOCTYPE svg PUBLIC "-//W3C//DTD SVG 20010904//EN"
 "http://www.w3.org/TR/2001/REC-SVG-20010904/DTD/svg10.dtd">
<svg version="1.0" xmlns="http://www.w3.org/2000/svg"
 width="128.000000pt" height="237.000000pt" viewBox="0 0 128.000000 237.000000"
 preserveAspectRatio="xMidYMid meet">

<g transform="translate(0.000000,237.000000) scale(0.100000,-0.100000)"
fill="#000000" stroke="none">
<path d="M100 2051 c-15 -29 -12 -56 8 -74 17 -15 62 -17 438 -17 364 0 423 2
442 16 24 17 30 62 10 82 -9 9 -123 12 -450 12 -422 0 -438 -1 -448 -19z"/>
<path d="M195 1745 c-38 -14 -78 -52 -69 -66 2 -4 -2 -9 -8 -11 -10 -4 -14
-138 -16 -624 -3 -703 -7 -668 78 -711 43 -22 53 -23 325 -23 312 0 374 8 478
60 145 73 227 208 227 371 0 127 -63 236 -172 298 l-47 27 49 49 c102 101 125
270 57 419 -49 106 -146 180 -277 210 -89 21 -568 22 -625 1z m569 -290 c75
-50 74 -181 -1 -231 -23 -15 -53 -19 -185 -22 l-158 -4 0 142 0 142 158 -4
c136 -3 161 -6 186 -23z m49 -569 c50 -25 79 -68 85 -126 6 -64 -17 -110 -71
-141 -39 -23 -53 -24 -224 -27 l-183 -4 0 155 c0 115 3 157 13 161 6 3 86 4
177 3 137 -2 171 -6 203 -21z"/>
</g>
</svg>
