<?xml version="1.0" encoding="UTF-8"?>
<!DOCTYPE svg PUBLIC "-//W3C//DTD SVG 1.1//EN" "http://www.w3.org/Graphics/SVG/1.1/DTD/svg11.dtd">
<!-- Creator: CorelDRAW X8 -->
<svg xmlns="http://www.w3.org/2000/svg" xml:space="preserve" width="210mm" height="297mm" version="1.1" style="shape-rendering:geometricPrecision; text-rendering:geometricPrecision; image-rendering:optimizeQuality; fill-rule:evenodd; clip-rule:evenodd"
viewBox="0 0 21000 29700"
 xmlns:xlink="http://www.w3.org/1999/xlink">
 <defs>
  <style type="text/css">
   <![CDATA[
    .fil0 {fill:#27A959}
   ]]>
  </style>
 </defs>
 <g id="Capa_x0020_1">
  <metadata id="CorelCorpID_0Corel-Layer"/>
  <path class="fil0" d="M5973 2323c164,14 281,12 399,119 108,99 246,82 337,176 -33,90 -108,74 -134,167l-27 93c-47,137 -37,86 -166,127 -188,62 -55,255 -257,333l3 207c76,15 70,2 133,46 22,119 -6,90 -10,173 -10,191 121,269 -90,432 131,16 87,31 132,86 58,71 103,48 171,101 84,63 103,301 63,397 -110,31 -225,17 -339,7 -135,-13 -166,16 -277,17 -40,0 -49,-6 -62,117 -5,39 -5,8 1,54 9,77 26,-100 10,61 -181,202 -220,47 -484,41l19 141c0,5 0,12 0,17l-20 114c-130,10 -192,-57 -306,-13 -102,39 -226,263 -429,314 -91,23 -92,4 -135,10 -86,13 -15,11 -121,68 -118,-125 -104,-144 -255,-64 -120,64 -188,6 -317,47l-146 57c-63,21 -103,49 -138,89 -4,5 -17,22 -21,28 -4,4 -7,11 -11,15 -3,5 -6,11 -9,16l-183 165c-92,92 -53,75 -66,190 -53,481 -363,367 -413,570 -20,84 27,101 -56,168 -73,60 -94,15 -171,74 -57,108 -2,-10 -14,98 -14,135 -118,177 -181,280 -99,165 81,290 -103,467 93,166 -27,269 -104,397l183 268c39,66 35,100 64,160 45,94 113,75 166,177 3,5 6,12 8,17 38,72 101,115 146,156 87,80 66,257 157,321 101,49 213,4 315,72 64,42 113,144 182,219 68,73 107,146 164,233 78,120 88,96 138,235 24,67 175,235 227,264l208 118c109,97 77,126 125,272 88,265 53,110 -16,292 168,343 196,119 249,645 15,151 54,213 139,305 85,92 50,53 92,178l36 113c-41,32 -77,42 -124,72 -45,28 -72,51 -122,70l-57 -85c-3,-4 -7,-11 -10,-15 -3,-5 -8,-11 -10,-16l-22 -31c-103,10 -63,1 -139,41 -234,122 -201,97 -458,111 -207,12 -39,50 -277,10 -152,-25 -201,37 -268,-115 -108,77 -127,59 -248,100 -115,-117 -71,-138 -372,-138 -166,0 -135,83 -223,170 -91,90 -87,8 -237,184 -52,63 -56,32 -103,96 -104,146 31,25 -180,218 -5,4 -20,20 -25,25l-26 24c-20,18 -52,36 -71,48 146,224 150,30 354,263l197 200c142,170 158,79 320,176 54,33 74,77 128,123 88,76 63,31 165,47 -50,129 -70,51 -47,254 76,683 116,415 333,561 26,18 59,54 112,89 -51,482 -84,363 -192,638l89 84c3,3 11,9 14,11 3,2 10,7 14,11l-52 119 524 82c69,-60 76,-83 208,-61 129,323 -152,476 146,670l263 208c80,75 282,144 177,322l-17 31c-15,26 5,3 -26,51 -69,106 -58,39 -161,92 -5,205 -15,132 -57,301l-6 31c-25,103 -100,143 -152,294 -21,62 -41,81 -66,131 -146,288 -130,215 49,470 170,241 510,381 510,609 0,65 -17,439 -22,450 -57,142 -209,99 -150,313 132,484 -209,67 23,822 52,170 -9,56 94,157 60,58 68,79 112,161 120,223 122,74 64,357 -70,338 243,356 243,817 0,181 -9,354 -5,555 2,103 -39,121 -56,225 -24,150 38,88 76,213 -54,84 -33,35 -102,96 2,165 46,138 68,276 -63,99 -62,21 -102,118 -42,101 -22,162 -124,349 -40,72 -51,46 -88,153 48,138 182,128 127,385 -46,210 94,258 -62,404 36,76 10,16 40,68l88 196c45,83 36,30 119,93 141,106 28,92 98,174l143 238c33,100 14,206 6,304 42,27 6,9 64,18 9,1 27,-5 70,5 104,238 150,68 246,274 43,92 -9,126 7,215 7,40 27,33 33,109 13,169 -67,55 -175,173 52,99 37,-47 139,212 177,451 -13,156 130,542 169,459 237,277 690,402 88,24 80,22 125,74l21 29c166,247 240,72 333,213 21,31 21,43 46,78 34,47 54,75 129,98 172,53 204,-76 318,-122 166,-67 139,-34 318,-153 74,-49 65,-44 103,-120 86,-171 200,-277 302,-418 86,-119 150,-76 185,-285 14,-85 -1,-267 -36,-343 -34,-71 -9,-163 5,-259 36,-262 212,-154 347,-217 6,-4 12,-18 14,-14 1,4 10,-11 13,-14l21 -31c173,-252 293,-64 201,-591 -121,7 -32,16 -151,56 -46,-344 -106,-174 -285,-312 -61,-48 -99,-97 -181,-104 -165,258 -97,-4 -203,306l-180 1c11,-56 44,-140 63,-215 21,-83 11,-203 33,-292 39,-161 232,-277 31,-448 -335,110 -171,215 -298,243 -56,13 -3,5 -71,-9 -86,-18 -9,28 -87,-29 -137,-101 -104,-205 57,-223 44,-5 54,2 95,-2 -41,-32 -60,-40 -93,-82 -78,-100 -164,-216 -292,-271 30,-143 39,-140 25,-279 133,-56 226,-102 259,-284l-267 -54 47 -234c18,-134 50,-69 110,-174 67,8 61,17 75,21l213 67c42,-55 70,-114 107,-156 71,35 90,88 213,78 8,-66 -47,-193 -31,-319 15,-120 109,-105 210,-188 -14,-194 -10,-197 19,-385 19,-124 -21,-93 -3,-181 11,-55 197,-222 -128,-406 -156,-88 -191,2 -375,-25 3,179 19,203 126,272 0,109 -12,65 -22,154 203,155 7,315 -171,353 -69,15 -47,20 -107,-9l-48 199 -186 -39c-18,-58 3,17 -13,-60 -1,-6 -3,-14 -4,-21l-136 -87c-65,-208 -238,-172 -425,-123 0,-74 55,-95 117,-162 61,-67 113,-80 151,-147 49,-85 29,-115 99,-198 136,-162 118,-200 -50,-278 -51,-24 -88,-41 -155,-47 -142,-13 -193,51 -328,72 -38,-44 -35,-57 -85,-104 -86,-81 -35,-42 -157,-64 8,-167 49,-8 2,-155 314,-38 167,-59 378,-167 85,-44 52,-1 115,-30 -33,-93 -171,-196 -250,-273 37,-330 -4,-214 1,-370 6,-233 177,-112 216,-285 30,-135 10,-183 111,-339 40,-62 80,-71 133,-115l161 -86c-12,-336 192,-475 491,-487 -27,-189 45,-44 -54,-211 -43,-73 -51,-129 -69,-232 -40,-222 -146,-205 -172,-431l42 -11c52,-15 73,-9 102,-50 6,-9 46,-176 46,-177 28,-208 -106,-488 -104,-705 2,-230 89,-140 142,-367 1,-4 3,-11 4,-14l53 -177c1,-5 2,-12 3,-16 39,-349 -203,-394 -58,-641l139 -308c195,18 54,97 264,54 78,-99 69,-212 89,-319 35,-194 42,-180 258,-190 151,-311 282,-375 355,-733 46,-223 66,-113 205,-173 67,-174 19,-177 30,-377 82,-55 115,-27 153,-135 76,-218 -41,-72 118,-205l180 -118c59,-37 106,-119 152,-177 -67,-134 -280,-211 140,-273l-34 -171c115,-97 159,-186 235,-300 98,-149 212,-140 333,-214 187,-113 112,-116 197,-323 97,-230 85,-79 154,-392l144 -49c53,-164 140,-259 155,-439 9,-99 30,-156 70,-234 188,-368 169,-251 241,-379 78,-138 151,-215 264,-333 25,-27 55,-54 73,-75 52,-63 48,-37 59,-118 -82,-49 -143,-57 -198,-130 -61,-83 32,-22 -92,-80 -94,-45 -51,7 -102,-63 37,-67 37,-54 102,-99l-23 -34c-3,-4 -15,-27 -17,-33 -33,-99 2,-34 -9,-85 -13,-59 10,-7 -29,-53 -14,-17 -34,-23 -65,-68l92 -241c96,-211 4,-38 30,-194 12,-71 72,-155 118,-203 75,-78 34,-120 84,-193 37,-53 40,-4 49,-84 25,-207 -143,-162 123,-434 38,-40 60,-46 86,-87l80 -148c33,-42 23,-4 45,-54 -180,-365 92,-308 26,-752 85,-49 40,10 100,-67 -117,-489 -29,-510 -21,-780 4,-128 -22,-19 -43,-141 -50,-295 85,-237 162,-518 -90,-152 -107,53 -79,-249 6,-67 4,-56 -6,-118 -161,-8 -174,1 -304,56 -100,42 -51,19 -126,74l-190 108c-159,101 -264,-33 -395,-41 -101,-6 -24,23 -145,50 -98,-65 -320,-206 -441,-149 -144,67 -283,245 -468,184 -39,-214 73,-348 -145,-475l-127 -32c-81,-21 -4,-128 18,-174 3,-6 6,-12 8,-18l38 -64c54,-65 118,-69 163,-129l30 -46c88,-142 20,-137 175,-196 252,-97 195,-181 206,-377 97,-50 117,-100 110,-206 -11,-155 82,-225 44,-316 -33,-81 -58,-107 -131,-142 -152,-74 -91,-53 -173,-180 -119,-39 -75,16 -179,-65 -88,-69 -74,-75 -174,-54 -228,48 -116,-112 -385,-56l-69 -222c-9,-3 -19,-13 -23,-6l-114 -35c-77,-15 -24,-6 -109,12 -60,13 -239,50 -274,47 14,-266 173,-286 198,-368 -4,-107 -58,-67 -27,-199 19,-80 47,-112 22,-210 -17,-66 -118,-198 -152,-233l-106 -93c-107,36 -76,63 -198,102 -178,-100 -117,-125 -371,-104 -213,17 -541,-117 -916,-51 -65,12 -74,-14 -147,10 -195,64 -265,149 -506,162 -134,6 -107,-33 -256,15 -146,47 -32,-15 -106,71 -76,89 13,24 -101,73l-53 24c-148,87 -49,40 -150,64 -105,26 -79,131 -49,184z"/>
 </g>
</svg>
