<?xml version="1.0" standalone="no"?>
<!DOCTYPE svg PUBLIC "-//W3C//DTD SVG 20010904//EN"
 "http://www.w3.org/TR/2001/REC-SVG-20010904/DTD/svg10.dtd">
<svg version="1.0" xmlns="http://www.w3.org/2000/svg"
 width="660.000000pt" height="237.000000pt" viewBox="0 0 660.000000 237.000000"
 preserveAspectRatio="xMidYMid meet">

<g transform="translate(0.000000,237.000000) scale(0.100000,-0.100000)"
fill="#000000" stroke="none">
<path d="M3243 2077 c-30 -15 -47 -50 -39 -81 5 -19 16 -28 47 -36 37 -10 44
-9 65 11 24 23 34 79 13 79 -5 0 -7 5 -4 10 3 6 -1 10 -9 10 -9 0 -16 5 -16
10 0 13 -28 11 -57 -3z"/>
<path d="M1433 2069 c-50 -18 -49 -88 1 -111 20 -9 30 -8 51 6 33 22 40 41 29
74 -10 29 -48 43 -81 31z"/>
<path d="M2839 2076 c-3 -3 -224 -6 -490 -6 l-485 -1 -2 -38 c-5 -75 -33 -71
542 -71 399 0 516 3 524 13 21 26 23 54 5 75 -17 20 -82 39 -94 28z"/>
<path d="M5010 2060 c-30 -30 -26 -76 8 -94 29 -14 69 -6 84 17 15 24 8 66
-14 81 -30 21 -54 20 -78 -4z"/>
<path d="M200 2051 c-15 -29 -12 -56 8 -74 17 -15 62 -17 438 -17 364 0 423 2
442 16 24 17 30 62 10 82 -9 9 -123 12 -450 12 -422 0 -438 -1 -448 -19z"/>
<path d="M3576 2054 c-20 -20 -20 -43 0 -72 l15 -22 505 0 c491 0 505 1 524
20 25 25 26 52 2 73 -17 15 -68 17 -525 17 -446 0 -507 -2 -521 -16z"/>
<path d="M5402 2058 c-20 -20 -15 -76 8 -88 26 -14 944 -14 970 0 28 15 34 47
16 75 l-16 25 -483 0 c-362 0 -486 -3 -495 -12z"/>
<path d="M4523 1809 c-49 -14 -109 -77 -123 -128 -14 -51 0 -126 31 -165 43
-55 137 -79 210 -55 73 25 119 90 119 169 0 131 -111 215 -237 179z"/>
<path d="M2080 1763 c-292 -49 -514 -257 -590 -553 -20 -75 -15 -266 9 -353
68 -247 297 -463 546 -513 93 -19 233 -14 329 12 187 50 354 192 446 379 136
276 93 575 -120 819 -76 87 -232 175 -358 201 -68 14 -202 18 -262 8z m270
-344 c240 -112 305 -417 133 -627 -83 -101 -231 -157 -356 -134 -135 25 -242
106 -300 229 -29 63 -32 76 -32 168 0 90 3 106 28 158 43 86 99 151 164 188
114 65 247 72 363 18z"/>
<path d="M3205 1755 c-47 -17 -81 -55 -95 -107 -7 -23 -10 -257 -10 -620 1
-539 3 -586 19 -624 36 -80 122 -112 204 -76 83 37 87 50 87 320 l0 232 183 0
184 0 7 -227 c5 -190 9 -233 24 -262 26 -49 63 -73 120 -79 57 -5 112 20 147
66 20 26 20 43 20 657 l0 630 -23 33 c-32 45 -93 75 -138 67 -100 -15 -158
-95 -154 -212 1 -32 2 -129 1 -216 l-1 -157 -182 2 -183 3 -1 217 c-1 119 -4
232 -8 250 -10 55 -89 119 -144 118 -9 -1 -35 -7 -57 -15z"/>
<path d="M5605 1764 c-108 -25 -159 -41 -210 -67 -290 -144 -447 -474 -380
-799 45 -221 235 -443 445 -521 297 -111 623 -17 812 233 105 138 151 274 152
445 0 154 -43 300 -120 401 -13 17 -21 34 -16 39 4 5 2 5 -4 2 -6 -3 -17 4
-23 16 -18 31 -128 124 -194 163 -108 63 -189 86 -322 90 -66 1 -129 1 -140
-2z m235 -326 c51 -16 130 -69 169 -113 19 -22 48 -69 65 -105 29 -60 31 -73
31 -170 0 -98 -2 -109 -32 -165 -97 -186 -280 -273 -464 -219 -109 32 -191
101 -247 209 -36 68 -37 73 -37 180 0 98 3 116 27 168 53 114 170 206 287 227
53 10 151 4 201 -12z"/>
<path d="M295 1745 c-38 -14 -78 -52 -69 -66 2 -4 -2 -9 -8 -11 -10 -4 -14
-138 -16 -624 -3 -703 -7 -668 78 -711 43 -22 53 -23 325 -23 312 0 374 8 478
60 145 73 227 208 227 371 0 127 -63 236 -172 298 l-47 27 49 49 c102 101 125
270 57 419 -49 106 -146 180 -277 210 -89 21 -568 22 -625 1z m569 -290 c75
-50 74 -181 -1 -231 -23 -15 -53 -19 -185 -22 l-158 -4 0 142 0 142 158 -4
c136 -3 161 -6 186 -23z m49 -569 c50 -25 79 -68 85 -126 6 -64 -17 -110 -71
-141 -39 -23 -53 -24 -224 -27 l-183 -4 0 155 c0 115 3 157 13 161 6 3 86 4
177 3 137 -2 171 -6 203 -21z"/>
<path d="M4542 1273 c-21 -8 -42 -60 -42 -103 0 -22 -1 -40 -2 -40 -2 0 -21 7
-43 15 -88 31 -135 13 -135 -54 0 -33 5 -42 40 -66 48 -33 50 -49 10 -70 -35
-18 -50 -43 -50 -83 0 -56 59 -79 120 -47 40 21 60 10 60 -32 0 -64 41 -101
97 -87 27 7 53 55 53 98 0 34 14 40 49 21 64 -33 121 -9 121 51 0 35 -12 52
-58 84 l-33 22 22 24 c12 13 28 24 35 24 37 0 46 88 12 119 -22 22 -42 21
-105 -4 -38 -16 -43 -12 -43 34 0 53 -33 101 -67 100 -16 0 -34 -3 -41 -6z"/>
<path d="M4543 485 c-17 -12 -23 -26 -23 -54 0 -45 24 -71 66 -71 58 0 95 68
61 113 -18 25 -77 32 -104 12z"/>
</g>
</svg>
