<?xml version="1.0" encoding="utf-8"?>
<!-- Generator: Adobe Illustrator 27.5.0, SVG Export Plug-In . SVG Version: 6.00 Build 0)  -->
<svg version="1.1" xmlns="http://www.w3.org/2000/svg" xmlns:xlink="http://www.w3.org/1999/xlink" x="0px" y="0px"
	 viewBox="0 0 500 500" style="enable-background:new 0 0 500 500;" xml:space="preserve">
<g id="Floor">
	<path style="fill:#F5F5F5;" d="M91.005,410.154c87.285,45.598,228.803,45.6,316.087,0.001c87.285-45.6,87.285-119.529,0-165.128
		c-87.285-45.599-228.803-45.599-316.088-0.001C3.719,290.625,3.719,364.556,91.005,410.154z"/>
</g>
<g id="Shadows">
	<path style="fill:#E6E6E6;" d="M303.319,391.108L97.307,272.167c-1.435-0.828-1.435-2.172,0-3l120.707-69.712
		c1.435-0.829,3.761-0.829,5.196,0l206.032,118.951c1.435,0.828,1.435,2.172,0,3l-120.727,69.702
		C307.08,391.936,304.754,391.936,303.319,391.108z"/>
	<path style="fill:#EBEBEB;" d="M56.255,351.204c21.228,10.118,55.643,10.118,76.871,0c21.228-10.116,21.228-26.52,0-36.638
		c-21.227-10.116-55.643-10.116-76.871,0C35.028,324.684,35.028,341.089,56.255,351.204z"/>
</g>
<g id="Plant">
	<g id="XMLID_16391_">
		<g id="XMLID_16395_">
			<path style="fill:#27DEBF;" d="M260.48,219.64c2.544,0.05,6.741-3.241,7.377-7.319c0.636-4.078,1.853-7.301,7.668-9.506
				c5.815-2.204,9.072-3.193,10.936-8.251c1.863-5.058-1.051-10.761-1.814-15.076c-0.763-4.315,3.18-9.328,9.031-14.071
				s9.18-9.734,3.973-12.74c-5.207-3.007-11.64-1.733-17.291,1.892c-5.651,3.625-10.079,8.395-17.021,7.759
				c-6.943-0.636-10.829,2.332-12.185,7.78c-1.356,5.448,0.611,12.362-4.552,14.071v23.157L260.48,219.64z"/>
		</g>
		<g id="XMLID_16394_">
			<path style="fill:#FFFFFF;" d="M250,209.197c-0.037,0-0.075-0.004-0.113-0.013c-0.269-0.063-0.437-0.331-0.375-0.6
				c5.289-22.895,29.168-48.244,42.072-53.509c0.253-0.104,0.547,0.018,0.651,0.274c0.104,0.256-0.018,0.547-0.274,0.652
				c-12.715,5.188-36.253,30.202-41.475,52.808C250.434,209.041,250.228,209.197,250,209.197z"/>
		</g>
		<g id="XMLID_16393_">
			<path style="fill:#FFFFFF;" d="M263.3,181.827c-0.24,0-0.452-0.173-0.492-0.418c-1.021-6.162-4.033-10.987-4.064-11.035
				c-0.147-0.234-0.077-0.542,0.156-0.69c0.231-0.147,0.542-0.079,0.689,0.156c0.128,0.203,3.151,5.046,4.204,11.406
				c0.045,0.272-0.139,0.53-0.411,0.575C263.354,181.825,263.327,181.827,263.3,181.827z"/>
		</g>
		<g id="XMLID_16392_">
			<path style="fill:#FFFFFF;" d="M259.167,188.792c-0.222,0-0.424-0.148-0.483-0.372c-0.07-0.267,0.089-0.54,0.355-0.611
				c7.856-2.08,17.789-0.092,18.208-0.006c0.27,0.055,0.444,0.319,0.39,0.59c-0.056,0.27-0.316,0.443-0.59,0.39
				c-0.102-0.021-10.125-2.026-17.752-0.006C259.252,188.786,259.209,188.792,259.167,188.792z"/>
		</g>
	</g>
</g>
<g id="Clouds">
	<g id="XMLID_16493_">
		<g id="XMLID_16497_">
			<path style="fill:#EBEBEB;" d="M347.545,85.109l3.835,1.475v-8.448c0-6.697,5.342-8.302,11.141-4.954l0,0
				c5.8,3.348,10.501,11.492,10.501,18.188v1.227c1.316-0.525,3.015-0.321,4.873,0.751l0,0c4.174,2.41,7.557,8.269,7.557,13.088
				v0.558l5.347,3.087c2.748,1.587,4.976,5.446,4.976,8.619s-2.228,4.46-4.976,2.873l-43.254-24.972
				c-2.748-1.587-4.976-5.446-4.976-8.619S344.797,83.522,347.545,85.109z"/>
		</g>
		<g id="XMLID_16494_">
			<path style="fill:#EBEBEB;" d="M390.958,87.911l6.952,4.014c-0.035-0.311-0.059-0.619-0.059-0.92V88.99
				c0-3.584,2.516-5.037,5.62-3.245c1.257,0.726,2.413,1.876,3.349,3.221c0.508-4.507,4.044-6.185,8.338-3.706
				c4.643,2.681,8.408,9.201,8.408,14.563v3.013c0,1.389-0.257,2.558-0.712,3.49l5.774,3.334c1.722,0.994,3.117,3.411,3.117,5.399
				c0,1.988-1.396,2.794-3.117,1.8L390.958,95.11c-1.722-0.994-3.117-3.411-3.117-5.399
				C387.841,87.723,389.237,86.917,390.958,87.911z"/>
		</g>
	</g>
</g>
<g id="Signal">
	<g id="XMLID_16334_">
		<g id="XMLID_16330_">
			<g id="XMLID_16311_">
				<polygon style="fill:#455A64;" points="249.126,90.948 285.605,69.887 293.729,74.578 285.605,88.649 249.126,109.71 				"/>
			</g>
			<g id="XMLID_16326_">
				<polygon style="fill:#37474F;" points="285.605,69.887 281.543,67.542 244.985,88.649 249.126,90.948 				"/>
			</g>
			<g id="XMLID_16327_">
				<path style="fill:#FFFFFF;" d="M254.422,100.38c-0.428,0.15-0.77,0.211-1.025,0.185c-0.082-0.009-0.121-0.036-0.121-0.08
					c0-0.043,0.012-0.088,0.037-0.134l0.309-0.665c0.037-0.078,0.072-0.125,0.104-0.143c0.031-0.018,0.07-0.025,0.121-0.023
					c0.23,0.003,0.498-0.04,0.805-0.133c0.305-0.092,0.615-0.229,0.926-0.409c0.426-0.245,0.744-0.5,0.959-0.764
					c0.215-0.265,0.324-0.554,0.324-0.865c0-0.188-0.041-0.313-0.123-0.379c-0.08-0.065-0.199-0.094-0.354-0.085
					c-0.158,0.009-0.41,0.046-0.76,0.111l-0.215,0.039c-0.406,0.072-0.74,0.11-1.006,0.113c-0.266,0.004-0.484-0.065-0.658-0.208
					c-0.176-0.142-0.264-0.389-0.264-0.737c0-0.568,0.217-1.131,0.65-1.691c0.434-0.559,1.002-1.042,1.709-1.449
					c0.43-0.249,0.801-0.422,1.117-0.524c0.314-0.101,0.588-0.133,0.818-0.099c0.074,0.013,0.113,0.044,0.113,0.094
					c0,0.037-0.014,0.079-0.039,0.124l-0.299,0.659c-0.037,0.078-0.068,0.124-0.094,0.139c-0.025,0.015-0.064,0.019-0.121,0.014
					c-0.398-0.025-0.895,0.133-1.488,0.475c-0.393,0.227-0.689,0.47-0.889,0.729c-0.199,0.259-0.299,0.544-0.299,0.855
					c0,0.193,0.043,0.323,0.125,0.39c0.086,0.067,0.209,0.094,0.371,0.082c0.162-0.013,0.424-0.055,0.785-0.126l0.234-0.042
					c0.455-0.081,0.811-0.12,1.066-0.115c0.256,0.005,0.453,0.081,0.594,0.227c0.141,0.147,0.211,0.398,0.211,0.753
					c0,0.537-0.201,1.075-0.603,1.616c-0.402,0.542-0.975,1.026-1.717,1.455C255.283,100.028,254.848,100.23,254.422,100.38z"/>
				<path style="fill:#FFFFFF;" d="M259.605,96.663c-0.553-0.261-0.83-0.919-0.83-1.974c0-1.054,0.277-2.031,0.83-2.93
					c0.551-0.899,1.342-1.645,2.371-2.239c1.023-0.591,1.813-0.756,2.367-0.497c0.555,0.26,0.832,0.916,0.832,1.97
					c0,1.055-0.277,2.033-0.832,2.933c-0.555,0.9-1.344,1.646-2.367,2.237C260.947,96.758,260.156,96.925,259.605,96.663z
					 M263.473,93.798c0.344-0.613,0.516-1.319,0.516-2.118c0-0.798-0.172-1.304-0.516-1.517c-0.342-0.214-0.842-0.132-1.496,0.246
					s-1.156,0.873-1.502,1.485c-0.346,0.611-0.52,1.316-0.52,2.114c0,0.799,0.174,1.305,0.52,1.521
					c0.346,0.215,0.848,0.133,1.502-0.245S263.131,94.411,263.473,93.798z"/>
				<path style="fill:#FFFFFF;" d="M267.404,92.745c-0.432,0.059-0.766-0.024-1.002-0.249c-0.238-0.225-0.355-0.581-0.355-1.067
					v-3.771c0-0.118,0.025-0.221,0.078-0.308c0.055-0.086,0.143-0.166,0.268-0.238l0.496-0.286c0.125-0.072,0.215-0.096,0.271-0.073
					c0.055,0.024,0.084,0.095,0.084,0.213v3.799c0,0.487,0.141,0.772,0.426,0.858c0.283,0.086,0.691-0.025,1.221-0.331
					c0.523-0.302,0.928-0.661,1.211-1.073c0.285-0.414,0.428-0.863,0.428-1.351v-3.799c0-0.118,0.027-0.221,0.082-0.31
					c0.057-0.088,0.146-0.169,0.271-0.241l0.486-0.281c0.244-0.141,0.365-0.096,0.365,0.135v3.771c0,0.486-0.119,0.979-0.359,1.476
					c-0.24,0.497-0.574,0.967-1.006,1.409c-0.43,0.442-0.924,0.823-1.478,1.144C268.33,92.496,267.834,92.687,267.404,92.745z"/>
				<path style="fill:#FFFFFF;" d="M274.467,88.728c-0.057-0.024-0.084-0.092-0.084-0.204v-5.108l-1.639,0.945
					c-0.123,0.072-0.209,0.096-0.256,0.073c-0.047-0.023-0.07-0.093-0.07-0.211V83.97c0-0.118,0.023-0.218,0.07-0.298
					c0.047-0.08,0.133-0.156,0.256-0.228l4.475-2.583c0.123-0.072,0.211-0.096,0.26-0.072c0.051,0.025,0.076,0.096,0.076,0.214
					v0.253c0,0.118-0.025,0.217-0.076,0.295c-0.049,0.079-0.137,0.154-0.26,0.226l-1.639,0.945v5.108
					c0,0.112-0.027,0.212-0.078,0.299c-0.055,0.086-0.147,0.168-0.277,0.244l-0.486,0.281
					C274.613,88.728,274.523,88.752,274.467,88.728z"/>
				<path style="fill:#FFFFFF;" d="M278.363,86.478c-0.053-0.026-0.078-0.095-0.078-0.207v-5.68c0-0.118,0.025-0.22,0.078-0.308
					c0.053-0.086,0.143-0.165,0.268-0.238l0.496-0.286c0.125-0.072,0.215-0.096,0.271-0.073c0.057,0.024,0.084,0.095,0.084,0.213
					v2.358l3.068-1.772v-2.358c0-0.118,0.029-0.221,0.084-0.31c0.057-0.088,0.146-0.169,0.271-0.241l0.486-0.281
					c0.125-0.072,0.215-0.096,0.272-0.073c0.057,0.024,0.084,0.095,0.084,0.213v5.68c0,0.112-0.025,0.212-0.078,0.299
					c-0.055,0.087-0.147,0.168-0.277,0.244l-0.486,0.281c-0.125,0.072-0.215,0.096-0.271,0.073
					c-0.055-0.024-0.084-0.092-0.084-0.205v-2.414l-3.068,1.772v2.414c0,0.112-0.027,0.212-0.08,0.299
					c-0.053,0.086-0.145,0.168-0.275,0.244l-0.496,0.286C278.506,86.48,278.416,86.503,278.363,86.478z"/>
			</g>
		</g>
		<g id="XMLID_16331_">
			<g id="XMLID_16333_">
				<polygon style="fill:#455A64;" points="244.906,112.032 208.427,90.971 200.303,95.662 208.427,109.733 244.906,130.794 				"/>
			</g>
			<g id="XMLID_16332_">
				<polygon style="fill:#37474F;" points="208.427,90.971 212.489,88.626 249.047,109.733 244.906,112.032 				"/>
			</g>
			<g id="XMLID_16329_">
				<path style="fill:#FFFFFF;" d="M211.876,105.951c-0.054-0.066-0.091-0.148-0.113-0.248l-1.706-6.889
					c-0.008-0.024-0.011-0.053-0.011-0.091c0-0.093,0.068-0.101,0.205-0.021l0.874,0.505c0.108,0.063,0.185,0.122,0.227,0.178
					c0.044,0.056,0.072,0.122,0.087,0.199l1.08,4.741l1.296-2.882c0.029-0.059,0.064-0.09,0.104-0.095
					c0.039-0.006,0.105,0.019,0.199,0.073l0.498,0.287c0.093,0.054,0.159,0.106,0.199,0.158c0.04,0.051,0.073,0.122,0.103,0.213
					l1.308,4.385l1.069-3.5c0.015-0.06,0.045-0.092,0.092-0.097c0.047-0.004,0.12,0.023,0.222,0.081l0.886,0.512
					c0.137,0.079,0.205,0.165,0.205,0.258c0,0.038-0.004,0.063-0.011,0.079l-1.718,4.912c-0.029,0.07-0.069,0.108-0.124,0.111
					c-0.054,0.003-0.132-0.025-0.232-0.083l-0.584-0.337c-0.101-0.058-0.178-0.12-0.232-0.186c-0.053-0.065-0.095-0.15-0.123-0.254
					l-1.308-4.498l-1.297,2.994c-0.028,0.071-0.07,0.108-0.124,0.111c-0.054,0.003-0.132-0.025-0.232-0.083l-0.594-0.343
					C212.012,106.081,211.931,106.017,211.876,105.951z"/>
				<path style="fill:#FFFFFF;" d="M219.86,110.528c-0.062-0.091-0.092-0.193-0.092-0.306v-5.679c0-0.119,0.03-0.188,0.092-0.209
					c0.061-0.021,0.164,0.011,0.308,0.094l4.495,2.595c0.144,0.083,0.242,0.165,0.297,0.246c0.054,0.081,0.081,0.181,0.081,0.299
					v0.253c0,0.119-0.027,0.188-0.081,0.211c-0.055,0.022-0.153-0.009-0.297-0.092l-3.512-2.027v1.815l2.55,1.472
					c0.144,0.083,0.245,0.166,0.302,0.249c0.058,0.083,0.088,0.184,0.088,0.303v0.234c0,0.119-0.03,0.187-0.088,0.207
					c-0.057,0.02-0.158-0.012-0.302-0.095l-2.55-1.472v1.824l3.501,2.021c0.144,0.083,0.244,0.168,0.303,0.254
					c0.058,0.086,0.086,0.189,0.086,0.307v0.252c0,0.112-0.028,0.177-0.086,0.194c-0.059,0.016-0.159-0.017-0.303-0.1l-4.484-2.589
					C220.024,110.706,219.922,110.62,219.86,110.528z"/>
				<path style="fill:#FFFFFF;" d="M227.109,114.793c-0.493-0.382-0.888-0.745-1.183-1.09c-0.094-0.11-0.141-0.187-0.141-0.231
					c0-0.044,0.015-0.073,0.043-0.087l0.357-0.28c0.043-0.031,0.082-0.037,0.118-0.016c0.036,0.021,0.083,0.063,0.141,0.127
					c0.266,0.291,0.575,0.581,0.929,0.869c0.354,0.288,0.71,0.536,1.07,0.744c0.489,0.283,0.858,0.426,1.107,0.429
					c0.248,0.003,0.372-0.151,0.372-0.463c0-0.187-0.047-0.364-0.14-0.53c-0.094-0.166-0.232-0.342-0.411-0.527
					c-0.181-0.185-0.472-0.463-0.876-0.833l-0.247-0.227c-0.469-0.433-0.856-0.813-1.162-1.139
					c-0.307-0.327-0.561-0.669-0.762-1.029c-0.202-0.36-0.303-0.714-0.303-1.064c0-0.567,0.251-0.861,0.751-0.881
					c0.501-0.02,1.158,0.205,1.972,0.675c0.497,0.287,0.928,0.577,1.291,0.868c0.364,0.291,0.679,0.597,0.946,0.92
					c0.086,0.106,0.129,0.184,0.129,0.234c0,0.037-0.015,0.064-0.043,0.078l-0.346,0.287c-0.043,0.031-0.08,0.038-0.108,0.021
					c-0.028-0.017-0.075-0.062-0.141-0.137c-0.461-0.522-1.033-0.98-1.718-1.375c-0.454-0.262-0.796-0.388-1.026-0.378
					c-0.23,0.011-0.345,0.172-0.345,0.483c0,0.193,0.048,0.376,0.146,0.547c0.097,0.171,0.239,0.352,0.427,0.541
					c0.186,0.189,0.489,0.473,0.907,0.851l0.27,0.249c0.526,0.484,0.936,0.888,1.231,1.211c0.296,0.324,0.524,0.646,0.688,0.967
					c0.161,0.321,0.242,0.659,0.242,1.015c0,0.537-0.232,0.825-0.696,0.866c-0.465,0.04-1.126-0.187-1.982-0.682
					C228.105,115.512,227.602,115.174,227.109,114.793z"/>
				<path style="fill:#FFFFFF;" d="M234.019,118.702c-0.064-0.093-0.098-0.196-0.098-0.309v-5.108l-1.89-1.091
					c-0.145-0.083-0.244-0.166-0.297-0.247c-0.055-0.081-0.081-0.181-0.081-0.299v-0.253c0-0.119,0.026-0.189,0.081-0.21
					c0.053-0.022,0.152,0.008,0.297,0.092l5.164,2.981c0.144,0.083,0.245,0.168,0.303,0.254c0.058,0.086,0.086,0.188,0.086,0.307
					v0.253c0,0.119-0.028,0.186-0.086,0.203c-0.058,0.017-0.159-0.017-0.303-0.1l-1.891-1.091v5.108
					c0,0.112-0.031,0.179-0.092,0.199c-0.061,0.021-0.168-0.012-0.319-0.1l-0.562-0.324
					C234.187,118.884,234.084,118.795,234.019,118.702z"/>
			</g>
		</g>
		<g id="XMLID_16328_">
			<path style="fill:#455A64;" d="M249.119,71.486c-0.02-0.597-0.417-1.19-1.206-1.645c-1.618-0.934-4.24-0.934-5.858,0
				c-0.789,0.455-1.186,1.049-1.206,1.645h-0.008v220.166h8.284V71.486H249.119z"/>
		</g>
	</g>
</g>
<g id="Map">
	<g>
		<g id="XMLID_15771_">
			<path style="fill:#455A64;" d="M322.174,237.824l-48.75-14.07l-50.517-42.625c-1.266-1.068-3.456-1.263-4.891-0.435
				L97.279,250.395c-1.435,0.828-1.572,2.366-0.305,3.435l50.517,42.625l48.75,14.07l52.8,44.56l54.021,17.82
				c1.573,0.519,4.012,0.269,5.448-0.559l5.531-3.191l115.205-66.511c1.435-0.828,1.323-1.921-0.251-2.44l-54.021-17.82
				L322.174,237.824z"/>
		</g>
		<g id="XMLID_15774_">
			<polygon style="fill:#455A64;" points="273.424,223.754 147.491,296.455 196.241,310.525 322.174,237.824 			"/>
		</g>
		<g id="XMLID_15772_">
			<path style="fill:#455A64;" d="M249.041,355.085l54.021,17.82c1.573,0.519,4.012,0.268,5.447-0.56l120.737-69.701
				c1.435-0.828,1.323-1.921-0.251-2.44l-54.021-17.82L249.041,355.085z"/>
		</g>
		<g id="XMLID_15524_">
			<g id="XMLID_15768_">
				<polygon style="fill:#E0E0E0;" points="265.294,228.444 219.086,189.455 109.413,252.775 155.621,291.765 				"/>
			</g>
			<g id="XMLID_15769_">
				<polygon style="fill:#E0E0E0;" points="314.044,242.514 204.371,305.835 155.621,291.765 265.294,228.444 				"/>
			</g>
			<g id="XMLID_16258_" style="opacity:0.5;">
				<polygon style="fill:#E0E0E0;" points="314.044,242.514 204.371,305.835 155.621,291.765 265.294,228.444 				"/>
			</g>
			<g id="XMLID_15778_">
				<polygon style="fill:#E0E0E0;" points="366.844,287.074 257.171,350.395 204.371,305.835 314.044,242.514 				"/>
			</g>
			<g id="XMLID_15781_">
				<polygon style="fill:#E0E0E0;" points="413.376,302.424 303.702,365.744 257.171,350.395 366.844,287.074 				"/>
			</g>
			<g id="XMLID_16265_" style="opacity:0.5;">
				<polygon style="fill:#E0E0E0;" points="413.376,302.424 303.702,365.744 257.171,350.395 366.844,287.074 				"/>
			</g>
		</g>
		<g id="XMLID_15827_">
			<g id="XMLID_15536_">
				<polygon style="fill:#F0F0F0;" points="136.163,275.346 151.559,265.966 127.186,242.513 109.413,252.775 				"/>
			</g>
			<g id="XMLID_15822_">
				<g id="XMLID_15678_">
					<polygon style="fill:#F0F0F0;" points="155.621,263.62 131.248,240.169 167.807,218.981 192.179,242.514 					"/>
				</g>
				<g id="XMLID_15737_">
					<polygon style="fill:#F0F0F0;" points="171.869,216.716 196.241,240.168 208.427,233.133 204.365,197.954 					"/>
				</g>
				<g id="XMLID_15739_">
					<polygon style="fill:#F0F0F0;" points="212.489,230.787 208.427,195.609 219.086,189.455 258.693,222.874 					"/>
				</g>
				<g id="XMLID_15762_">
					<polygon style="fill:#F0F0F0;" points="169.839,283.556 157.652,271.829 142.418,280.624 155.621,291.765 					"/>
				</g>
				<g id="XMLID_15763_">
					<polygon style="fill:#F0F0F0;" points="161.713,269.483 173.901,281.209 210.42,260.125 198.259,248.384 					"/>
				</g>
				<g id="XMLID_15783_">
					<polygon style="fill:#F0F0F0;" points="214.521,257.758 202.334,246.031 213.491,239.59 236.862,235.478 236.863,244.859 					
						"/>
				</g>
				<g id="XMLID_15786_">
					<polygon style="fill:#F0F0F0;" points="240.923,242.513 240.924,234.763 260.232,231.366 					"/>
				</g>
			</g>
		</g>
		<g id="XMLID_15826_">
			<g id="XMLID_15749_">
				<path style="fill:#E6E6E6;" d="M261.236,249.548c-4.488-1.295-10.854-0.77-14.219,1.173c-3.365,1.943-2.455,4.568,2.031,5.864
					c4.487,1.296,10.853,0.771,14.219-1.172C266.633,253.469,265.724,250.843,261.236,249.548z"/>
			</g>
			<g id="XMLID_15821_">
				<g id="XMLID_16031_">
					<path style="fill:#E6E6E6;" d="M248.039,247.011c-0.93,0.31-1.78,0.68-2.52,1.11c-3.54,2.04-3.63,4.7-3.5,5.75
						c0.06,0.49,0.21,1.1,0.57,1.76l-9.79,5.64l-18.28-3.51l22.34-12.9L248.039,247.011z"/>
				</g>
				<g id="XMLID_15784_">
					<polygon style="fill:#E6E6E6;" points="240.923,242.513 253.451,244.678 259.874,245.567 281.539,233.132 265.294,228.444 
											"/>
				</g>
				<g id="XMLID_16028_">
					<path style="fill:#E6E6E6;" d="M314.039,242.511l-30.5,17.61l-18.17-2.49c2.95-1.98,3.01-4.38,2.9-5.37
						c-0.06-0.48-0.21-1.09-0.56-1.75l24.67-14.25L314.039,242.511z"/>
				</g>
				<g id="XMLID_15967_">
					<path style="fill:#E6E6E6;" d="M279.869,262.241l-14.57,8.41l-24.44-4.69l10.18-5.84c0.03-0.02,0.05-0.03,0.08-0.05
						c0.01,0,0.01,0,0.01,0c1.1,0.15,2.26,0.23,3.439,0.23c2.5,0,4.89-0.33,6.95-0.95h0.01L279.869,262.241z"/>
				</g>
				<g id="XMLID_882_">
					<g id="XMLID_889_">
						<polygon style="fill:#E6E6E6;" points="210.42,260.125 173.901,281.209 192.18,284.727 228.712,263.635 						"/>
					</g>
					<g id="XMLID_891_">
						<polygon style="fill:#E6E6E6;" points="265.301,270.656 240.878,265.97 204.353,287.07 228.737,291.763 						"/>
					</g>
					<g id="XMLID_881_">
						<g id="XMLID_890_">
							<polygon style="fill:#E6E6E6;" points="169.839,283.556 155.621,291.765 171.868,296.454 188.115,287.074 							"/>
						</g>
						<g id="XMLID_894_">
							<polygon style="fill:#E6E6E6;" points="224.675,294.112 200.29,289.418 182.698,299.58 204.371,305.835 							"/>
						</g>
					</g>
				</g>
			</g>
		</g>
		<g id="XMLID_15825_">
			<g id="XMLID_896_">
				<polygon style="fill:#F0F0F0;" points="289.668,270.656 303.242,295.653 338.413,275.347 305.916,261.276 				"/>
			</g>
			<g id="XMLID_15794_">
				<g id="XMLID_892_">
					<polygon style="fill:#F0F0F0;" points="224.675,294.112 228.738,301.144 227.469,325.329 204.371,305.835 					"/>
				</g>
				<g id="XMLID_893_">
					<polygon style="fill:#F0F0F0;" points="228.737,291.763 232.8,298.799 283.74,269.389 279.872,262.243 					"/>
				</g>
				<g id="XMLID_895_">
					<polygon style="fill:#F0F0F0;" points="283.537,260.125 287.636,267.139 320.643,248.083 314.044,242.514 					"/>
				</g>
				<g id="XMLID_897_">
					<polygon style="fill:#F0F0F0;" points="285.606,273.001 234.827,302.319 233.523,330.438 237.37,333.684 299.215,297.978 					
						"/>
				</g>
				<g id="XMLID_14700_">
					<polygon style="fill:#F0F0F0;" points="309.978,258.93 323.943,250.868 347.044,270.364 342.475,273.002 					"/>
				</g>
				<g id="XMLID_14725_">
					<polygon style="fill:#F0F0F0;" points="243.97,339.254 261.234,329.287 269.358,343.358 257.171,350.395 					"/>
				</g>
				<g id="XMLID_14731_">
					
						<rect x="268.101" y="321.163" transform="matrix(0.866 -0.5 0.5 0.866 -127.4681 182.8582)" style="fill:#F0F0F0;" width="18.762" height="16.248"/>
				</g>
				<g id="XMLID_14733_">
					<polygon style="fill:#F0F0F0;" points="285.607,315.216 303.104,305.114 310.88,319.385 293.731,329.287 					"/>
				</g>
				<g id="XMLID_14735_">
					<polygon style="fill:#F0F0F0;" points="314.876,317.078 307.12,302.795 342.475,282.383 360.245,281.504 366.844,287.074 					
						"/>
				</g>
				<g id="XMLID_14734_">
					<polygon style="fill:#F0F0F0;" points="350.344,273.149 342.475,277.692 355.148,277.203 					"/>
				</g>
			</g>
		</g>
		<g id="XMLID_15823_">
			<g id="XMLID_15407_">
				<path style="fill:#E6E6E6;" d="M334.604,324.742c-4.488-1.295-10.854-0.77-14.219,1.172s-2.455,4.569,2.031,5.864
					c4.487,1.296,10.853,0.771,14.219-1.173C340.002,328.663,339.093,326.038,334.604,324.742z"/>
			</g>
			<g id="XMLID_15790_">
				<g id="XMLID_14732_">
					<polygon style="fill:#E6E6E6;" points="269.358,343.358 285.607,348.049 272.681,355.511 257.171,350.395 					"/>
				</g>
				<g id="XMLID_15411_">
					<polygon style="fill:#E6E6E6;" points="273.42,341.013 289.669,345.703 305.917,336.323 289.668,331.632 					"/>
				</g>
				<g id="XMLID_15412_">
					<path style="fill:#E6E6E6;" d="M293.731,329.287l16.248,4.69l5.41-3.124c0,0-2.569-5.741,5.04-8.141l-9.549-3.327
						L293.731,329.287z"/>
				</g>
				<g id="XMLID_15413_">
					<path style="fill:#E6E6E6;" d="M314.876,317.078l10.004,3.606c0,0,3.229-0.521,8.124,0l29.782-17.194l-16.248-4.69
						L314.876,317.078z"/>
				</g>
				<g id="XMLID_15432_">
					<polygon style="fill:#E6E6E6;" points="350.597,296.454 366.847,301.144 382.356,292.191 366.844,287.074 					"/>
				</g>
				<g id="XMLID_15433_">
					<polygon style="fill:#E6E6E6;" points="392.696,295.602 366.847,310.525 387.158,317.561 413.376,302.424 					"/>
				</g>
				<g id="XMLID_15748_">
					<path style="fill:#E6E6E6;" d="M362.785,312.871L341.43,325.2c0,0,2.62,4.074-0.732,7.29l13.963,3.832l28.433-16.417
						l-19.819-6.752"/>
				</g>
				<g id="XMLID_15789_">
					<path style="fill:#E6E6E6;" d="M350.6,338.668l-14.428-3.639c0,0-6.956,2.721-12.805,0.6l-21.512,12.42l-4.062,15.746
						l5.909,1.949L350.6,338.668z"/>
				</g>
				<g id="XMLID_15793_">
					<polygon style="fill:#E6E6E6;" points="297.793,350.394 294.389,362.672 283.021,358.922 					"/>
				</g>
			</g>
		</g>
		<g id="XMLID_31_">
			<path style="fill:#27DEBF;" d="M279.87,312.903c-0.343,0-0.676-0.176-0.862-0.492c-0.28-0.476-0.122-1.089,0.354-1.369
				l21.386-12.612l-19.849-36.246l-18.679-2.943c-0.415-0.065-0.744-0.383-0.825-0.794c-0.082-0.411,0.102-0.83,0.46-1.048
				c2.764-1.685,4.16-3.287,4.039-4.634c-0.116-1.289-1.724-2.649-4.299-3.64c-3.85-1.482-11.788-0.995-15.215,1.665
				c-2.994,2.324-1.192,5.125-1.114,5.243c0.15,0.227,0.201,0.506,0.142,0.771c-0.06,0.266-0.225,0.495-0.458,0.636l-10.298,6.227
				c-0.209,0.127-0.456,0.172-0.694,0.129l-21.642-3.881c-0.203-0.036-0.389-0.134-0.533-0.279l-21.842-21.992
				c-0.389-0.392-0.387-1.025,0.005-1.414c0.391-0.39,1.025-0.387,1.414,0.005l21.62,21.767l20.96,3.759l9.177-5.548
				c-0.735-1.793-0.926-4.701,2.038-7.003c3.968-3.082,12.753-3.649,17.16-1.952c1.97,0.757,5.313,2.457,5.571,5.327
				c0.153,1.695-0.819,3.393-2.896,5.066l16.705,2.633c0.307,0.049,0.573,0.236,0.722,0.508l20.551,37.526
				c0.26,0.474,0.096,1.067-0.369,1.342l-22.221,13.104C280.218,312.858,280.043,312.903,279.87,312.903z"/>
		</g>
	</g>
	<g>
		<g>
			<g id="XMLID_16157_">
				<path style="fill:#27DEBF;" d="M197.222,206.445l-3.423-1.966l-0.001,0.001c-1.634-1.093-3.902-1.047-6.411,0.402
					c-4.976,2.873-9.01,10.168-9.01,16.293v1.394c0,6.126,8.236,12.782,8.236,12.782l3.367,1.905c0,0-2.023-2.306-1.792-2.78
					c2.206-4.527,8.21-17.311,8.21-22.311v-1.394c0-1.118-0.136-2.118-0.386-2.991l0.386,0.223L197.222,206.445z M187.387,220.488
					c-2.488,1.436-4.505,0.272-4.505-2.601c1.339-0.211,4.707-5.959,4.505-7.803c2.488-1.437,4.505-0.272,4.505,2.601
					C191.893,215.558,189.875,219.051,187.387,220.488z"/>
			</g>
			<g id="XMLID_16272_">
				<path style="fill:#27DEBF;" d="M197.222,206.445l-3.423-1.966l-0.001,0.001c-1.634-1.093-3.902-1.047-6.411,0.402
					c-4.976,2.873-9.01,10.168-9.01,16.293v1.394c0,6.126,8.236,12.782,8.236,12.782l3.367,1.905c0,0-2.023-2.306-1.792-2.78
					c2.206-4.527,8.21-17.311,8.21-22.311v-1.394c0-1.118-0.136-2.118-0.386-2.991l0.386,0.223L197.222,206.445z M187.387,220.488
					c-2.488,1.436-4.505,0.272-4.505-2.601c1.339-0.211,4.707-5.959,4.505-7.803c2.488-1.437,4.505-0.272,4.505,2.601
					C191.893,215.558,189.875,219.051,187.387,220.488z"/>
			</g>
			<g id="XMLID_1_" style="opacity:0.2;">
				<path d="M197.222,206.445l-3.423-1.966l-0.001,0.001c-1.634-1.093-3.902-1.047-6.411,0.402
					c-4.976,2.873-9.01,10.168-9.01,16.293v1.394c0,6.126,8.236,12.782,8.236,12.782l3.367,1.905c0,0-2.023-2.306-1.792-2.78
					c2.206-4.527,8.21-17.311,8.21-22.311v-1.394c0-1.118-0.136-2.118-0.386-2.991l0.386,0.223L197.222,206.445z M187.387,220.488
					c-2.488,1.436-4.505,0.272-4.505-2.601c1.339-0.211,4.707-5.959,4.505-7.803c2.488-1.437,4.505-0.272,4.505,2.601
					C191.893,215.558,189.875,219.051,187.387,220.488z"/>
			</g>
		</g>
		<g id="XMLID_16095_">
			<path style="fill:#27DEBF;" d="M200.002,212.851c0-6.126-4.034-8.762-9.011-5.889c-4.976,2.873-9.011,10.168-9.011,16.293v1.394
				c0,4.717,5.343,10.19,7.8,12.458c0.599,0.553,1.558,0.376,1.916-0.357c2.123-4.344,8.305-17.431,8.305-22.505V212.851z
				 M190.991,222.569c-2.488,1.436-4.505,0.272-4.505-2.601c0-2.873,2.017-6.367,4.505-7.803c2.488-1.437,4.505-0.272,4.505,2.601
				C195.497,217.639,193.48,221.132,190.991,222.569z"/>
		</g>
	</g>
	<g>
		<g>
			<g id="XMLID_13_">
				<path style="fill:#27DEBF;" d="M286.222,282.445l-3.423-1.966l-0.001,0.001c-1.634-1.093-3.902-1.047-6.411,0.402
					c-4.976,2.873-9.01,10.168-9.01,16.293v1.394c0,6.126,8.235,12.782,8.235,12.782l3.367,1.905c0,0-2.023-2.306-1.792-2.779
					c2.206-4.527,8.211-17.311,8.21-22.311v-1.394c0-1.118-0.136-2.118-0.386-2.991l0.386,0.223L286.222,282.445z M276.387,296.488
					c-2.488,1.436-4.505,0.272-4.505-2.601c1.339-0.211,4.707-5.96,4.505-7.803c2.488-1.436,4.505-0.272,4.505,2.601
					C280.893,291.558,278.875,295.051,276.387,296.488z"/>
			</g>
			<g id="XMLID_10_">
				<path style="fill:#27DEBF;" d="M286.222,282.445l-3.423-1.966l-0.001,0.001c-1.634-1.093-3.902-1.047-6.411,0.402
					c-4.976,2.873-9.01,10.168-9.01,16.293v1.394c0,6.126,8.235,12.782,8.235,12.782l3.367,1.905c0,0-2.023-2.306-1.792-2.779
					c2.206-4.527,8.211-17.311,8.21-22.311v-1.394c0-1.118-0.136-2.118-0.386-2.991l0.386,0.223L286.222,282.445z M276.387,296.488
					c-2.488,1.436-4.505,0.272-4.505-2.601c1.339-0.211,4.707-5.96,4.505-7.803c2.488-1.436,4.505-0.272,4.505,2.601
					C280.893,291.558,278.875,295.051,276.387,296.488z"/>
			</g>
			<g id="XMLID_7_" style="opacity:0.2;">
				<path d="M286.222,282.445l-3.423-1.966l-0.001,0.001c-1.634-1.093-3.902-1.047-6.411,0.402
					c-4.976,2.873-9.01,10.168-9.01,16.293v1.394c0,6.126,8.235,12.782,8.235,12.782l3.367,1.905c0,0-2.023-2.306-1.792-2.779
					c2.206-4.527,8.211-17.311,8.21-22.311v-1.394c0-1.118-0.136-2.118-0.386-2.991l0.386,0.223L286.222,282.445z M276.387,296.488
					c-2.488,1.436-4.505,0.272-4.505-2.601c1.339-0.211,4.707-5.96,4.505-7.803c2.488-1.436,4.505-0.272,4.505,2.601
					C280.893,291.558,278.875,295.051,276.387,296.488z"/>
			</g>
		</g>
		<g id="XMLID_4_">
			<path style="fill:#27DEBF;" d="M289.002,288.851c0-6.126-4.034-8.762-9.011-5.889s-9.011,10.168-9.011,16.293v1.394
				c0,4.717,5.343,10.19,7.801,12.457c0.599,0.553,1.558,0.376,1.916-0.357c2.123-4.344,8.305-17.431,8.305-22.505V288.851z
				 M279.991,298.569c-2.488,1.437-4.505,0.272-4.505-2.601c0-2.873,2.017-6.367,4.505-7.803c2.488-1.436,4.505-0.272,4.505,2.601
				C284.497,293.638,282.48,297.132,279.991,298.569z"/>
		</g>
	</g>
</g>
<g id="Locators_1_">
	<g id="XMLID_30_">
		<g id="XMLID_16337_">
			<g id="XMLID_16231_">
				<g id="XMLID_16234_">
					<g id="XMLID_16262_">
						<g id="XMLID_16263_">
							<path style="fill:#263238;" d="M355.299,165.372c-0.07-0.04-0.15-0.09-0.22-0.13l-6.86-3.94c-1.54-1.03-3.35-1.57-5.36-1.57
								c-2.4,0-5.08,0.78-7.9,2.41c-10.3,5.94-18.64,21.03-18.64,33.7v2.88c0,12.67,17.03,26.44,17.03,26.44l6.93,3.92
								c0.01,0.01,0.02,0.01,0.03,0.01c-0.23-0.27-4.17-4.79-3.7-5.74c4.56-9.36,16.98-35.81,16.98-46.15v-2.88
								c0-2.32-0.28-4.38-0.79-6.19l0.8,0.46L355.299,165.372z M342.409,198.722c-4.57,2.64-8.36,1.05-9.16-3.5
								c-4.33,1.58-7.61-0.91-7.61-6.18c2.77-0.44,9.73-12.33,9.32-16.14c4.56-2.64,8.35-1.05,9.15,3.5
								c4.34-1.58,7.62,0.91,7.62,6.18C351.729,188.522,347.559,195.752,342.409,198.722z"/>
						</g>
					</g>
					<g id="XMLID_16235_">
						<g id="XMLID_16236_">
							<path style="fill:#455A64;" d="M355.299,165.372c-0.07-0.04-0.15-0.09-0.22-0.13c-3.33-1.87-7.78-1.62-12.67,1.2
								c-7.37,4.26-13.75,13.21-16.77,22.6c-1.2,3.72-1.87,7.5-1.87,11.1v2.89c0,9.76,11.05,21.08,16.14,25.77
								c0.12,0.11,0.24,0.2,0.37,0.28c0.01,0.01,0.02,0.01,0.03,0.01c1.23,0.76,2.9,0.33,3.56-1.03
								c4.39-8.99,17.18-36.06,17.18-46.55v-2.89C361.049,172.112,358.849,167.502,355.299,165.372z M333.249,195.222
								c-0.11-0.58-0.16-1.21-0.16-1.88c0-5.94,4.17-13.17,9.32-16.14c0.58-0.33,1.15-0.6,1.7-0.8c4.34-1.58,7.62,0.91,7.62,6.18
								c0,5.94-4.17,13.17-9.32,16.14C337.839,201.362,334.049,199.772,333.249,195.222z"/>
						</g>
						<g id="XMLID_16257_">
							<path style="fill:#263238;" d="M345.465,173.988c-0.665,0.242-1.354,0.568-2.055,0.967
								c-6.225,3.59-11.266,12.329-11.266,19.51c0,0.81,0.06,1.571,0.193,2.272c0.967,5.5,5.549,7.422,11.072,4.231
								c6.225-3.59,11.266-12.329,11.266-19.509C354.676,175.088,350.71,172.078,345.465,173.988z"/>
						</g>
					</g>
				</g>
			</g>
			<g id="XMLID_16336_">
				<path style="fill:#27DEBF;" d="M344.185,176.81l1.889,4.013c0.119,0.253,0.35,0.343,0.616,0.241l4.224-1.621
					c0.671-0.257,0.939,0.688,0.453,1.599l-3.057,5.738c-0.193,0.362-0.281,0.774-0.235,1.101l0.722,5.193
					c0.115,0.825-0.587,1.909-1.187,1.835l-3.778-0.467c-0.238-0.029-0.523,0.135-0.761,0.44l-3.778,4.83
					c-0.6,0.767-1.301,0.493-1.187-0.465l0.722-6.026c0.046-0.38-0.042-0.69-0.235-0.83l-3.057-2.208
					c-0.486-0.351-0.217-1.605,0.453-2.122l4.224-3.258c0.266-0.205,0.497-0.562,0.616-0.952l1.889-6.195
					C343.018,176.673,343.885,176.173,344.185,176.81z"/>
			</g>
		</g>
		<g id="XMLID_16376_">
			<g id="XMLID_16339_">
				<g id="XMLID_16341_">
					<g id="XMLID_16342_">
						<g id="XMLID_16351_">
							<g id="XMLID_16352_">
								<path style="fill:#263238;" d="M398.818,190.445c-0.07-0.04-0.15-0.09-0.22-0.13l-6.86-3.94c-1.54-1.03-3.35-1.57-5.36-1.57
									c-2.4,0-5.08,0.78-7.9,2.41c-10.3,5.94-18.64,21.03-18.64,33.7v2.88c0,12.67,17.03,26.44,17.03,26.44l6.93,3.92
									c0.01,0.01,0.02,0.01,0.03,0.01c-0.23-0.27-4.17-4.79-3.7-5.74c4.56-9.36,16.98-35.81,16.98-46.15v-2.88
									c0-2.32-0.28-4.38-0.79-6.19l0.8,0.46L398.818,190.445z M385.928,223.795c-4.57,2.64-8.36,1.05-9.16-3.5
									c-4.33,1.58-7.61-0.91-7.61-6.18c2.77-0.44,9.73-12.33,9.32-16.14c4.56-2.64,8.35-1.05,9.15,3.5
									c4.34-1.58,7.62,0.91,7.62,6.18C395.249,213.595,391.078,220.825,385.928,223.795z"/>
							</g>
						</g>
						<g id="XMLID_16343_">
							<g id="XMLID_16345_">
								<path style="fill:#455A64;" d="M398.818,190.445c-0.07-0.04-0.15-0.09-0.22-0.13c-3.33-1.87-7.78-1.62-12.67,1.2
									c-7.37,4.26-13.75,13.21-16.77,22.6c-1.2,3.72-1.87,7.5-1.87,11.1v2.89c0,9.76,11.05,21.08,16.14,25.77
									c0.12,0.11,0.24,0.2,0.37,0.28c0.01,0.01,0.02,0.01,0.03,0.01c1.23,0.76,2.9,0.33,3.56-1.03
									c4.39-8.99,17.18-36.06,17.18-46.55v-2.89C404.568,197.185,402.368,192.575,398.818,190.445z M376.768,220.295
									c-0.11-0.58-0.16-1.21-0.16-1.88c0-5.94,4.17-13.17,9.32-16.14c0.58-0.33,1.15-0.6,1.7-0.8c4.34-1.58,7.62,0.91,7.62,6.18
									c0,5.94-4.171,13.17-9.32,16.14C381.358,226.435,377.568,224.845,376.768,220.295z"/>
							</g>
							<g id="XMLID_16344_">
								<path style="fill:#263238;" d="M388.984,199.061c-0.665,0.242-1.354,0.568-2.055,0.967
									c-6.225,3.59-11.266,12.329-11.266,19.509c0,0.81,0.06,1.571,0.193,2.273c0.967,5.5,5.549,7.422,11.072,4.231
									c6.225-3.59,11.266-12.329,11.266-19.509C398.195,200.161,394.23,197.151,388.984,199.061z"/>
							</g>
						</g>
					</g>
				</g>
			</g>
			<g id="XMLID_16363_">
				<polygon style="fill:#27DEBF;" points="396.303,206.393 387.406,204.019 378.509,216.667 380.863,215.307 380.863,222.743 
					386.028,219.761 386.028,215.608 388.781,214.018 388.781,218.172 393.953,215.186 393.953,207.75 				"/>
			</g>
		</g>
		<g id="XMLID_16338_">
			<g id="XMLID_16340_">
				<g id="XMLID_16356_">
					<g id="XMLID_16357_">
						<g id="XMLID_16365_">
							<g id="XMLID_16370_">
								<path style="fill:#263238;" d="M442.338,215.331c-0.07-0.04-0.15-0.09-0.22-0.13l-6.86-3.94c-1.54-1.03-3.35-1.57-5.36-1.57
									c-2.4,0-5.08,0.78-7.9,2.41c-10.3,5.94-18.64,21.03-18.64,33.7v2.88c0,12.67,17.03,26.44,17.03,26.44l6.93,3.92
									c0.01,0.01,0.02,0.01,0.03,0.01c-0.23-0.27-4.17-4.79-3.7-5.74c4.56-9.36,16.98-35.81,16.98-46.15v-2.88
									c0-2.32-0.28-4.38-0.79-6.19l0.8,0.46L442.338,215.331z M429.448,248.681c-4.57,2.64-8.36,1.05-9.16-3.5
									c-4.33,1.58-7.61-0.91-7.61-6.18c2.77-0.44,9.73-12.33,9.32-16.14c4.56-2.64,8.35-1.05,9.15,3.5
									c4.34-1.58,7.62,0.91,7.62,6.18C438.768,238.481,434.598,245.711,429.448,248.681z"/>
							</g>
						</g>
						<g id="XMLID_16358_">
							<g id="XMLID_16360_">
								<path style="fill:#455A64;" d="M442.338,215.331c-0.07-0.04-0.15-0.09-0.22-0.13c-3.33-1.87-7.78-1.62-12.67,1.2
									c-7.37,4.26-13.75,13.21-16.77,22.6c-1.2,3.72-1.87,7.5-1.87,11.1v2.89c0,9.76,11.05,21.08,16.14,25.77
									c0.12,0.11,0.24,0.2,0.37,0.28c0.01,0.01,0.02,0.01,0.03,0.01c1.23,0.76,2.9,0.33,3.56-1.03
									c4.39-8.99,17.18-36.06,17.18-46.55v-2.89C448.088,222.071,445.888,217.461,442.338,215.331z M420.288,245.181
									c-0.11-0.58-0.16-1.21-0.16-1.88c0-5.94,4.17-13.17,9.32-16.14c0.58-0.33,1.15-0.6,1.7-0.8c4.34-1.58,7.62,0.91,7.62,6.18
									c0,5.94-4.17,13.17-9.32,16.14C424.878,251.321,421.088,249.731,420.288,245.181z"/>
							</g>
							<g id="XMLID_16359_">
								<path style="fill:#263238;" d="M432.504,223.947c-0.665,0.242-1.354,0.568-2.055,0.967
									c-6.225,3.59-11.265,12.329-11.265,19.509c0,0.81,0.06,1.571,0.193,2.272c0.967,5.5,5.549,7.422,11.072,4.231
									c6.225-3.59,11.266-12.329,11.266-19.509C441.715,225.047,437.75,222.037,432.504,223.947z"/>
							</g>
						</g>
					</g>
				</g>
			</g>
			<g id="XMLID_16375_">
				<path style="fill:#27DEBF;" d="M430.362,229.619c2.131-1.23,3.858-0.233,3.858,2.227c0,2.46-1.728,5.452-3.858,6.682
					c-2.131,1.23-3.858,0.233-3.858-2.227C426.503,233.841,428.231,230.85,430.362,229.619z"/>
			</g>
			<g id="XMLID_16378_">
				<path style="fill:#27DEBF;" d="M423.016,251.98c1.982,0.869,4.579,0.595,7.432-1.054c2.853-1.645,5.449-4.377,7.433-7.539
					v-0.649c0-4.042-2.838-5.681-6.338-3.659l-2.189,1.263c-3.5,2.021-6.338,6.936-6.338,10.979V251.98z"/>
			</g>
		</g>
	</g>
</g>
<g id="Character">
	<g id="XMLID_16491_">
		<g id="XMLID_16431_">
			<g id="XMLID_16433_">
				<path style="fill:#263238;" d="M89.556,156.12c-6.945,0.344-11.849,1.978-16.83,6.982c-3.658,3.676-11.546,25.046-8.108,42.318
					c2.645,13.291,16.851,20.151,28.875,14.019c9.484-4.837,11.323-19.831,11.054-28.574
					C104.279,182.123,89.556,156.12,89.556,156.12z"/>
			</g>
			<g id="XMLID_16432_">
				<path style="fill:#37474F;" d="M80.936,162.536c0,0-1.878-2.456-6.241-1.082c0,0-4.596,5.538-8.147,16
					c0,0-1.128-0.034-0.408-2.967c0.72-2.933,3.601-10,5.452-12.485c1.852-2.485,4.459-4.534,17.006-9.13
					c10.975-4.02,7.479,6.027,7.479,6.027L80.936,162.536z"/>
			</g>
		</g>
		<g id="XMLID_16423_">
			<g id="XMLID_16421_">
				<g id="XMLID_16462_">
					<path style="fill:#263238;" d="M59.568,304.8c-1.468-0.755-2.4,1.108-3.731,2.604c-0.933,1.048-2.389,2.709-2.604,3.903
						c-0.319,1.768,1.275,4.553,3.041,6.088c1.765,1.535,3.814,2.634,4.456,5.999c0.641,3.365,1.949,5.365,5.437,6.87
						c3.822,1.648,8.941,1.121,10.678,0c2.057-1.328,0.179-2.787-2.704-6.912c-3.761-5.382-6.691-9.228-6.691-14.249L59.568,304.8z"
						/>
				</g>
				<g id="XMLID_16461_">
					<path style="fill:#FFA8A7;" d="M62.575,300.391l-3.088,4.527c-1.339,1.962-0.922,4.696,1.043,6.03
						c0.031,0.021,0.063,0.043,0.096,0.064c1.88,1.219,4.4,0.733,5.913-0.918l4.82-5.261L62.575,300.391z"/>
				</g>
				<g id="XMLID_16460_">
					<path style="fill:#37474F;" d="M120.102,213.424c0.195,5.769-0.781,27.839-4.991,38.88
						c-3.941,10.336-7.507,15.866-8.762,18.013c-1.255,2.146-37.397,37.332-37.397,37.332s-6.132-0.449-7.108-6.397
						c0,0,14.809-25.174,18.015-30.337c3.206-5.163,14.565-13.08,14.565-13.08l-1.033-48.4L120.102,213.424z"/>
				</g>
				<g id="XMLID_16459_">
					
						<rect x="109.981" y="322.839" transform="matrix(-0.9751 0.2217 -0.2217 -0.9751 297.7969 623.6653)" style="fill:#FFA8A7;" width="7.836" height="11.412"/>
				</g>
				<g id="XMLID_16458_">
					<path style="fill:#37474F;" d="M105.37,232.069c0,0,2.971-2.5,6.986-8.046c5.841-8.07,4.942-15.237,4.942-15.237h-2.392
						l-35.177,4.637c-0.575,3.331-1.256,8.809,0.424,17.281c3.091,15.592,15.63,42.231,15.63,42.231
						c-0.182,2.153-1.093,11.204,0.961,19.227c3.24,12.658,12.07,34.079,12.07,34.079s5.532,0.789,8.28-2.412
						c0,0-4.89-43.49-6.207-54.633C109.462,257.141,105.37,232.069,105.37,232.069z"/>
				</g>
				<g id="XMLID_16456_">
					<path style="fill:#263238;" d="M118.127,329.468l-0.248-1.093c0.803,0.152,4.233,5.848,7.636,8.324
						c3.727,2.71,6.962,4.312,8.626,5.534c2.227,1.634-0.997,4.981-6.479,5.279c-2.446,0.133-5.311-0.2-7.524-1.259
						c-2.387-1.141-3.839-3.27-5.654-5.101c-1.334-1.346-3.346-2.323-4.355-3.947c-0.455-0.733-0.525-2.55-0.474-4.11
						c0.047-1.432,0.093-3.004,0.584-2.983c0.039,0.165,0.189,0.833,0.189,0.833c0.695,0.489,2.873,1.108,4.648,1.025
						C116.364,331.91,118.765,331.61,118.127,329.468z"/>
				</g>
				<g id="XMLID_16455_">
					<path style="fill:#263238;" d="M109.922,261.818c0,0-3.683-26.167-4.551-29.749c0,0,6.493-2.473,8.489-4.741
						c0,0-1.425,3.172-6.07,5.991L109.922,261.818z"/>
				</g>
				<g id="XMLID_16424_">
					<path style="fill:#263238;" d="M95.783,272.937c-1.577-2.153-5.486-11.888-5.486-11.888l4.013,12.589
						c-1.017,3.776-0.92,10.005-0.92,10.005l2.054-1.79C95.389,280.354,95.783,272.937,95.783,272.937z"/>
				</g>
				<g id="XMLID_16453_">
					<path style="fill:#37474F;" d="M85.451,257.141"/>
				</g>
			</g>
			<g id="XMLID_15745_">
				<g id="XMLID_16425_">
					<path style="fill:#FFA8A7;" d="M116.163,202.501c-5.087-17.146-4.015-31.645-4.967-36.09l13.118,18.459
						c0,0,0.925,10.621,2.633,18.078c1.501,6.551,3.55,14.719,6.022,19.801c0.438,0.9,1.213,1.589,2.139,1.971
						c2.484,1.023,3.633,2.311,5.624,3.794c1.559,1.161,2.745,1.315,2.645,1.785c-0.128,0.604-0.917,1.682-2.623,1.463
						c-0.858-0.111-2.021-0.57-3.479-1.187c0,0,1.408,2.599,4.214,5.052c3.802,3.325,4.343,5.672-2.003,6.806
						c-3.976,0.711-7.571-1.206-12.057-9.473c-1.292-2.382-3.321-6.143-4.471-9.379
						C119.963,215.156,117.702,207.686,116.163,202.501z"/>
				</g>
				<g id="XMLID_16418_">
					<path style="fill:#27DEBF;" d="M106.738,158.758c6.174,0.064,12.251,1.449,14.343,8.023c2.042,6.418,4.677,25.036,4.677,25.036
						s-2.599,3.443-11.256,2.88L106.738,158.758z"/>
				</g>
				<g>
					<g id="XMLID_16_">
						<path style="fill:#27DEBF;" d="M106.738,158.758c6.174,0.064,12.251,1.449,14.343,8.023
							c2.042,6.418,4.677,25.036,4.677,25.036s-2.599,3.443-11.256,2.88L106.738,158.758z"/>
					</g>
					<g id="XMLID_17_" style="opacity:0.1;">
						<path d="M106.738,158.758c6.174,0.064,12.251,1.449,14.343,8.023c2.042,6.418,4.677,25.036,4.677,25.036
							s-2.599,3.443-11.256,2.88L106.738,158.758z"/>
					</g>
				</g>
				<g id="XMLID_16416_">
					<path style="fill:#27DEBF;" d="M94.061,159.13c-4.34,1.045-9.35,1.897-13.55,3.956c-2.923,1.434,1.266,25.634,1.266,25.634
						l-2.049,24.704c5.757,6.263,27.802,9.181,40.373,0c0,0,0-33.624,0-40.019c0-6.395-3.553-14.077-13.363-14.647L94.061,159.13z"
						/>
				</g>
				<g id="XMLID_16415_">
					<polygon style="fill:#27DEBF;" points="81.756,188.244 85.563,177.746 81.123,196.614 					"/>
					<polygon style="opacity:0.2;" points="81.756,188.244 85.563,177.746 81.123,196.614 					"/>
				</g>
				<g id="XMLID_15829_">
					<g id="XMLID_16046_">
						<g id="XMLID_16414_">
							<path style="fill:#263238;" d="M87.22,136.881l2.72,10.74c0.583,2.301,2.653,3.912,5.027,3.912h3.183v-14.981L87.22,136.881z
								"/>
						</g>
						<g id="XMLID_16413_">
							
								<ellipse transform="matrix(0.9925 -0.1225 0.1225 0.9925 -15.4669 14.3659)" style="fill:#263238;" cx="109.074" cy="132.942" rx="11.507" ry="11.507"/>
						</g>
						<g id="XMLID_16412_">
							<path style="fill:#263238;" d="M91.298,126.402c0,0-2.034-0.349-3.619,1.273c-1.555,1.59-1.232,4.533,0.002,11.295
								l4.804,0.552L91.298,126.402z"/>
						</g>
						<g id="XMLID_16411_">
							<path style="fill:#FFA8A7;" d="M93.552,139.525c-0.714,0.426-1.731-0.944-2.611-1.865c-0.88-0.92-3.751-2.178-5.184,0.84
								c-1.46,3.076,0.824,7.135,3.014,8.038c3.07,1.267,4.43-1.407,4.43-1.407l0.86,13.997c0,0,2.551,6.242,9.46,7.179
								c6.908,0.936,5.486-4.759,3.217-7.55l-0.011-4.277c0,0,3.539,0.59,5.252,0.27c2.523-0.471,3.761-2.812,4.95-5.805
								c1.773-4.467,2.862-10.788,1.33-18.802c-2.031-10.625-13.789-10.851-20.534-6.605
								C90.98,127.783,93.552,139.525,93.552,139.525z"/>
						</g>
						<g id="XMLID_16410_">
							<path style="fill:#263238;" d="M93.552,140.725c-0.359,0.007-1.723-2.257-2.611-3.065c-1.23-1.12,0.357-11.258,0.357-11.258
								c0.626-8.308,12.881-8.94,16.267-9.183c7.764-0.557,13.046,3.74,10.938,9.151c-1.407,2.459-4.275,3.136-6.964,3.463
								c-4.564,0.556-12.343-1.895-13.315-2.028c-1.324-0.181-1.606,1.102-2.32,4.606C95.278,135.488,94.758,140.702,93.552,140.725
								z"/>
						</g>
						<g id="XMLID_16409_">
							<path style="fill:#263238;" d="M91.305,127.191l-4.313-2.315c0.612-1.236,2.074-1.72,3.265-1.08
								C91.448,124.435,91.918,125.955,91.305,127.191z"/>
						</g>
						<g id="XMLID_16049_">
							<path style="fill:#F28F8F;" d="M106.728,154.481c0,0-6.397-1.289-8.633-2.477c-1.497-0.796-2.73-2.175-3.091-3.058
								c0,0,0.419,1.898,1.756,3.607c1.635,2.091,9.968,3.63,9.968,3.63V154.481z"/>
						</g>
					</g>
					<g id="XMLID_15830_">
						<g id="XMLID_16045_">
							<path style="fill:#263238;" d="M106.931,139.292c0,0.736-0.574,1.33-1.282,1.328c-0.708-0.002-1.282-0.6-1.282-1.335
								c0-0.735,0.574-1.33,1.282-1.328C106.357,137.959,106.931,138.557,106.931,139.292z"/>
						</g>
						<g id="XMLID_16042_">
							<path style="fill:#263238;" d="M105.571,134.453l-2.742,1.514c-0.404-0.788-0.118-1.766,0.639-2.183
								C104.226,133.365,105.167,133.665,105.571,134.453z"/>
						</g>
						<g id="XMLID_16034_">
							<path style="fill:#F28F8F;" d="M106.148,147.863l2.926,1.098c-0.289,0.839-1.179,1.273-1.987,0.97
								C106.279,149.627,105.859,148.701,106.148,147.863z"/>
						</g>
						<g id="XMLID_16032_">
							<path style="fill:#263238;" d="M117.695,135.52l-2.501-1.926c0.51-0.716,1.484-0.865,2.174-0.334
								C118.058,133.793,118.205,134.804,117.695,135.52z"/>
						</g>
						<g id="XMLID_16030_">
							<path style="fill:#263238;" d="M116.93,138.553c0,0.735-0.574,1.33-1.282,1.328c-0.708-0.002-1.282-0.6-1.282-1.335
								c0-0.736,0.574-1.33,1.282-1.328C116.356,137.219,116.93,137.817,116.93,138.553z"/>
						</g>
						<g id="XMLID_16029_">
							<polygon style="fill:#F28F8F;" points="111.553,138.772 110.346,146.397 114.569,145.901 							"/>
						</g>
					</g>
				</g>
				<g id="XMLID_15787_">
					<path style="fill:#37474F;" d="M84.62,260.689"/>
				</g>
			</g>
		</g>
		<g id="XMLID_16430_">
			<path style="fill:#37474F;" d="M89.841,158.869c0,0,9.696,4.316,10.742,19.216c2.188,31.155-21.274,38.33-21.274,38.33
				c-1.99-3.931-0.387-9.246,1.252-13.023c0,0,12.431-7.174,11.671-23.108c-0.542-11.362-6.18-17.726-9.025-18.587
				C83.207,161.697,85.944,159.697,89.841,158.869z"/>
		</g>
		<g id="XMLID_16427_">
			<path style="fill:#FFA8A7;" d="M71.609,217.301c4.203-1.468,5.249-2.024,10.545-6.271c5.41-4.337,9.764-9.941,13.974-15.563
				c0.501-0.669,1.089-1.259,1.696-1.831c0.601-0.567,1.805-1.634,2.857-3.231c1.852-2.812,1.875-4.647,2.055-8.009
				c0.181-3.362-0.376-6.739-1.387-9.95c-0.11-0.35-0.231-0.708-0.47-0.986c-0.239-0.278-0.627-0.46-0.978-0.354
				c-0.306,0.093-0.512,0.372-0.688,0.639c-1.188,1.806-2.015,3.818-3.173,5.64c-0.532,0.836-0.902,1.169-1.384,2.03
				c-0.058,0.103-0.983,1.063-1.179,0.641c-0.212-0.455,0.402-1.728,0.193-3.848c-0.2-2.025-0.789-2.883-1.436-3.046
				c-1.033-0.26-1.024,0.857-1.454,2.55c-0.513,2.018-1.287,3.658-1.203,6.625c0.074,2.613-0.316,3.696-0.878,5.983
				c-0.563,2.287-3.179,7.454-9.637,11.427c-1.41,0.868-1.858,1.03-1.043-2.367c2.129-8.875,4.032-13.933,6.06-18.534
				c2.587-5.869,4.366-10.362,1.973-12.742c-4.13-4.109-9.922-1.764-13.15,5.21c-3.732,8.063-5.775,14.185-7.27,28.973
				C64.982,206.694,64.38,219.827,71.609,217.301z"/>
		</g>
		<g id="XMLID_16426_">
			<path style="fill:#27DEBF;" d="M83.672,161.879c-4.88,0.22-8.129,2.189-11.361,8.565c-3.168,6.251-5.713,17.544-5.713,17.544
				s4.593,4.894,13.506,4.645c0,0,5.592-14.682,6.665-18.638C87.936,169.696,86.915,163.361,83.672,161.879z"/>
		</g>
	</g>
</g>
</svg>
